# Blender 4.4.3
# www.blender.org
mtllib rock_05.mtl
o rock_04
v -1.308264 1.265211 0.465545
v 1.121783 -0.130143 -0.733072
v -0.108239 0.901096 -0.653439
v -0.389884 -0.464109 -1.223778
v -0.370803 -0.477432 1.882336
v 0.319043 0.979088 0.620201
v -1.743320 -0.477431 1.309196
v -1.779176 -0.477433 -0.367814
v -0.392277 1.398508 0.079201
v -1.124650 1.121384 -0.615713
v 1.387185 -0.475590 -0.114917
v -0.467880 1.318267 -0.369220
v 0.848069 -0.477429 1.963763
v 0.675986 0.092131 1.845046
v -0.914657 0.929323 -0.872793
v -1.212488 0.877954 1.208457
v 0.300502 0.523289 1.433692
v 1.136851 0.116930 1.596635
v 0.038447 1.325787 1.018909
v 0.416032 0.654591 -0.119586
v -1.621603 0.156503 -0.525331
v 0.442476 0.434523 -0.800167
v -1.572710 0.254888 1.014897
v -0.332272 0.644847 -0.960558
v -0.866450 1.276435 1.258051
v -0.102104 -0.477429 -1.222837
v -0.975036 1.280209 1.210678
v 0.715365 0.164123 -0.926155
v 0.037378 0.609479 -0.826126
v -1.424458 0.911276 0.532034
v 1.146215 0.428073 1.315374
v -1.047059 0.027804 -1.083197
v -0.227264 1.464719 0.710761
v 1.181633 0.445500 1.092478
v -1.022684 1.464491 -0.198094
v 1.257589 0.067270 -0.093925
v -0.585390 0.840864 -0.911076
v -0.667898 1.465182 0.710370
v 1.218379 -0.477337 1.874621
v -0.120038 1.316393 0.560988
v -0.133145 -0.134406 1.898211
v 0.100525 1.291833 1.094271
v -0.136053 0.260189 1.804480
v -0.091496 1.412472 0.932839
v 1.520925 -0.477460 0.693793
v -0.365289 1.150892 -0.578274
v 1.390831 0.054196 0.678615
v 1.026385 0.115652 1.745566
v -0.923795 1.325641 1.018888
v 1.185612 -0.476776 -0.922205
v 1.112293 0.360294 1.449877
v -1.387227 1.141855 -0.374969
v 1.105029 -0.477431 -1.010054
v 0.966238 0.621084 1.140906
v -0.723637 1.412409 0.926057
v -0.933829 -0.477378 -1.213551
v -0.930172 0.172778 1.494172
v 1.321725 0.249371 0.751136
v -0.764198 1.550657 -0.100729
v -1.441994 0.794532 1.017063
v 0.629540 0.595530 0.243151
v 0.733292 -0.374488 1.956116
v -1.549879 0.329975 1.132489
v 1.286893 0.215323 0.538001
v 0.083381 0.850445 -0.353599
v -1.334067 1.020005 0.673850
v 1.333057 0.145049 0.391042
v -0.013592 1.058195 0.045870
v -1.351886 1.228676 0.367352
v 1.284453 -0.460357 -0.547538
v -0.931106 0.867984 1.328406
v -0.637460 0.937597 -0.858809
v 1.129223 -0.031620 1.774710
v -0.685595 0.659475 1.467619
v 0.186535 0.571777 -0.797583
v 0.894527 0.094454 1.801887
v 0.817198 0.078047 -0.907446
v 0.630481 0.908494 1.193373
v -0.605184 1.533794 -0.119321
v 0.886511 0.128266 -0.793674
v 0.421748 1.056879 1.165769
v 1.032919 -0.471830 1.923980
v 0.714414 0.222833 -0.871500
v -1.145529 0.009133 -1.001408
v 1.046118 0.223649 1.620326
v 0.715453 0.412659 -0.190623
v -1.523454 0.588491 -0.451663
v 0.059146 1.303934 1.123713
v -0.547342 1.526708 0.011964
v -0.769138 0.933005 1.372511
v -0.103971 0.486801 -0.993938
v -0.681969 1.562964 0.025948
v 0.838788 0.548566 0.582119
v -0.580582 1.590406 0.103404
v 1.150313 0.008424 -0.591747
v 0.691866 0.727777 0.797928
v -0.455714 1.551794 0.681570
v 1.177780 -0.086669 -0.598658
v 1.351381 0.123262 0.515678
v -1.406095 0.680647 1.174691
v 1.173768 -0.252028 -0.767673
v -1.383888 0.796578 1.156241
v -1.262814 1.258006 -0.442915
v 1.470020 -0.469979 0.342740
v -0.669942 0.648049 1.489488
v -0.386101 1.586986 0.625217
v 1.356489 -0.154356 0.141966
v -0.717949 0.693503 1.458521
v -0.304563 1.530842 0.688648
v 0.946161 0.636678 1.257471
v 0.795220 -0.033404 -0.958946
v 0.104202 1.141966 0.609241
v 0.301588 0.550406 -0.761259
v 0.846086 0.738780 1.215597
v -1.480427 0.634820 1.033314
v -0.010377 0.507268 -0.936049
v -1.240386 1.260144 0.676826
v -1.593011 0.152831 1.217674
v 0.057389 0.597542 -0.808712
v -1.104778 1.188735 1.166435
v -1.521183 0.371110 1.200217
v 0.475322 0.697016 0.181444
v -1.060410 1.255235 1.174137
v -0.638390 -0.475091 -1.223711
vn -0.3764 0.2143 0.9013
vn 0.1250 0.3420 0.9313
vn -0.9718 0.2348 0.0208
vn 0.1690 0.2280 -0.9589
vn -0.0000 -1.0000 -0.0000
vn 0.5822 0.7787 -0.2338
vn 0.9397 0.2421 0.2415
vn 0.1268 0.7324 0.6690
vn -0.6413 0.2625 -0.7210
vn -0.3579 0.9232 0.1398
vn 0.5950 0.7692 -0.2331
vn -0.0109 0.2315 -0.9728
vn 0.6662 0.7065 -0.2387
vn -0.0001 -1.0000 -0.0000
vn 0.5340 0.8185 -0.2118
vn 0.0005 0.7807 -0.6249
vn -0.6292 0.7763 -0.0376
vn 0.1848 0.2537 0.9495
vn -0.0667 -0.0000 0.9978
vn -0.3759 0.2148 0.9014
vn -0.6414 0.2626 -0.7209
vn -0.0011 0.7966 -0.6045
vn -0.3389 0.9313 0.1338
vn -0.3765 0.2149 0.9011
vn 0.1255 0.3455 0.9300
vn 0.9409 0.2395 0.2396
vn 0.1369 0.7463 0.6514
vn 0.6594 0.7141 -0.2351
vn -0.0026 0.9731 0.2305
vn 0.6288 0.7364 -0.2495
vn 0.3218 0.5962 -0.7355
vn -0.7071 0.0001 -0.7071
vn -0.9721 0.2293 -0.0496
vn 0.5777 0.7832 -0.2300
vn 0.7273 0.5802 -0.3665
vn -0.4676 0.8635 0.1891
vn 0.1696 0.2287 -0.9586
vn 0.2077 0.9600 -0.1876
vn -0.3763 0.2171 0.9007
vn -0.8879 0.3526 0.2956
vn -0.0001 -1.0000 -0.0001
vn 0.0138 0.2302 -0.9730
vn -0.3842 0.2155 0.8978
vn 0.0001 0.9795 0.2015
vn 0.3110 0.6372 -0.7052
vn 0.5616 0.7967 -0.2232
vn 0.3232 0.6017 -0.7304
vn 0.2033 0.7444 -0.6360
vn -0.9722 0.2333 0.0213
vn -0.8876 0.3552 0.2934
vn 0.6887 0.7061 0.1646
vn 0.1236 0.3737 0.9193
vn -0.0644 0.2358 -0.9697
vn -0.7073 0.0005 -0.7069
vn 0.6510 0.7184 -0.2454
vn -0.0005 0.3167 0.9485
vn 0.9400 0.2415 0.2408
vn 0.9476 0.2346 -0.2168
vn 0.0020 0.7634 -0.6459
vn -0.3602 0.9223 0.1400
vn 0.9387 0.2368 0.2506
vn 0.5638 0.7946 -0.2252
vn -0.0495 0.2358 -0.9705
vn 0.0061 0.8035 -0.5953
vn -0.3330 0.9340 0.1294
vn -0.0599 0.9748 0.2149
vn 0.0003 -1.0000 0.0002
vn 0.1963 0.2523 0.9475
vn 0.6056 0.7567 -0.2465
vn 0.3315 0.5679 -0.7534
vn -0.0009 0.2315 0.9728
vn 0.1238 0.7539 0.6452
vn 0.6800 0.6895 -0.2495
vn -0.0002 0.9789 0.2042
vn -0.3671 0.2124 0.9056
vn -0.0008 0.2311 0.9729
vn -0.0001 0.7045 0.7097
vn 0.6430 0.7281 -0.2375
vn 0.0448 -0.9989 -0.0097
vn 0.9634 0.2319 -0.1347
vn 0.6497 0.7198 -0.2444
vn 0.6384 0.7302 -0.2435
vn 0.9786 0.1714 -0.1139
vn 0.5403 0.8134 -0.2156
vn 0.6673 0.4328 0.6061
vn 0.2486 0.2618 0.9325
vn -0.0073 0.7384 0.6744
vn -0.3412 0.9304 0.1339
vn 0.9451 0.2394 -0.2224
vn 0.6553 0.4514 -0.6056
vn 0.1639 0.8637 0.4766
vn 0.9676 -0.2121 0.1372
vn -0.6962 0.7161 -0.0506
vn -0.6404 0.2649 -0.7210
vn 0.6561 0.4507 -0.6052
vn 0.0111 -0.9999 -0.0027
vn 0.6150 0.7489 -0.2468
vn 0.1240 0.3619 0.9239
vn -0.3505 0.9266 0.1362
vn 0.0008 0.9713 0.2379
vn -0.0352 0.2323 -0.9720
vn -0.0036 -0.9479 -0.3185
vn 0.1323 0.7282 0.6725
vn 0.1409 0.9623 0.2328
vn 0.9387 0.2406 0.2470
vn 0.8167 0.5767 -0.0192
vn 0.0015 0.7469 -0.6649
vn 0.1712 0.8365 -0.5205
vn -0.9717 0.2353 0.0215
vn -0.3762 0.2142 0.9014
vn 0.5824 0.7839 -0.2151
vn 0.6065 0.7545 -0.2507
vn 0.1578 0.2470 0.9561
vn -0.0667 -0.0002 0.9978
vn -0.9718 0.2348 0.0209
vn -0.8706 0.3520 0.3436
vn 0.8947 0.3946 -0.2093
vn 0.5488 0.8069 -0.2186
vn 0.5958 0.7626 -0.2520
vn 0.7285 0.5779 -0.3679
vn -0.3351 0.9330 0.1315
vn -0.4802 0.2789 0.8316
vn 0.9556 0.2291 -0.1854
vn 0.5473 0.8089 -0.2149
vn 0.6086 0.7525 -0.2514
vn 0.6279 0.7449 -0.2254
vn -0.5928 0.8046 -0.0360
vn -0.9112 0.2829 0.2995
vn 0.9392 0.2267 -0.2577
vn 0.9232 -0.3077 -0.2301
vn -0.3757 0.2135 0.9018
vn 0.1247 0.3588 0.9250
vn 0.0295 0.4874 -0.8727
vn 0.3292 0.5799 -0.7452
vn 0.9417 0.2373 0.2383
vn 0.6626 0.5609 0.4963
vn 0.1394 0.9151 0.3784
vn -0.3761 0.2150 0.9013
vn 0.3149 0.6232 -0.7159
vn 0.5794 0.7818 -0.2303
vn 0.1182 0.7598 0.6393
vn 0.3087 0.3875 0.8687
vn 0.3402 0.3383 -0.8774
vn 0.3132 0.6498 -0.6926
vn 0.6277 0.7371 -0.2503
vn 0.6074 0.7625 -0.2231
vn -0.0022 0.7567 -0.6538
vn 0.6782 0.6951 -0.2387
vn 0.6560 0.4563 -0.6011
vn 0.5814 0.5594 -0.5908
vn 0.5843 0.7808 -0.2213
vn 0.1250 0.3486 0.9289
vn 0.2556 0.2599 0.9312
vn 0.1807 -0.6365 0.7498
vn 0.5435 0.8110 -0.2164
vn 0.5765 0.5576 -0.5973
vn -0.6465 0.2452 -0.7224
vn -0.6439 0.0526 -0.7633
vn 0.1634 0.7343 0.6589
vn 0.7024 0.4806 0.5251
vn 0.5778 0.7829 -0.2307
vn 0.5601 0.7980 -0.2222
vn -0.9714 0.2366 0.0186
vn -0.8272 0.2719 -0.4918
vn 0.4934 0.7872 0.3700
vn 0.3578 0.9258 0.1224
vn 0.6575 0.7103 -0.2513
vn 0.2538 0.9654 -0.0597
vn -0.3467 0.2505 0.9039
vn -0.3348 0.2112 0.9183
vn 0.0177 0.2310 -0.9728
vn 0.3198 0.6206 -0.7160
vn 0.0867 0.9846 -0.1519
vn -0.3483 0.9275 0.1360
vn 0.5512 0.8023 -0.2291
vn 0.5999 0.7604 -0.2487
vn 0.6781 0.6954 -0.2379
vn -0.3560 0.9241 0.1386
vn 0.6616 0.4643 -0.5888
vn 0.9294 0.2854 -0.2340
vn 0.5792 0.7759 -0.2500
vn 0.5934 0.7698 -0.2352
vn -0.3553 0.9245 0.1385
vn -0.0005 0.3166 0.9486
vn 0.9393 0.2338 -0.2510
vn 0.8514 0.2782 -0.4447
vn 0.9633 0.2319 -0.1350
vn 0.8230 0.5666 0.0409
vn -0.8877 0.2528 0.3848
vn -0.4818 0.8558 0.1886
vn 0.7597 0.4557 -0.4639
vn -0.8990 0.2314 0.3719
vn -0.3766 0.2155 0.9010
vn -0.6405 0.2643 -0.7211
vn -0.0018 0.7837 -0.6211
vn 0.6776 -0.7266 -0.1137
vn 0.9568 0.2394 -0.1648
vn -0.6558 0.3656 0.6605
vn -0.3759 0.2147 0.9015
vn 0.6758 0.6943 -0.2473
vn 0.0823 0.7964 0.5991
vn 0.9552 0.2350 -0.1797
vn 0.9566 0.2322 -0.1760
vn -0.1437 0.1258 0.9816
vn 0.1239 0.3646 0.9229
vn 0.6729 0.6969 -0.2482
vn 0.6697 0.6999 -0.2484
vn 0.4963 0.6981 0.5161
vn 0.6326 0.7745 0.0053
vn 0.4197 0.3112 -0.8526
vn 0.1689 0.2275 -0.9590
vn 0.6277 0.7402 -0.2413
vn 0.5944 0.7680 -0.2385
vn 0.3420 0.5661 -0.7500
vn 0.2388 0.9509 -0.1970
vn 0.5985 0.7640 -0.2411
vn 0.7082 0.7055 0.0276
vn -0.9718 0.2353 0.0146
vn -0.9714 0.2341 0.0392
vn 0.3160 0.6101 -0.7266
vn 0.3161 0.6100 -0.7266
vn -0.8937 0.3451 0.2869
vn -0.8898 0.3483 0.2949
vn -0.9680 0.2495 0.0286
vn -0.9325 0.2847 0.2222
vn 0.7234 0.3200 -0.6118
vn 0.6866 0.6352 -0.3536
vn -0.8909 0.3439 0.2969
vn -0.4321 0.1861 0.8824
vn -0.9263 0.3206 0.1977
vn -0.5660 0.2491 0.7859
vn 0.1743 0.9697 -0.1710
vn 0.5970 0.7697 -0.2261
vn -0.3286 0.9357 0.1281
vn -0.8096 0.5057 0.2980
vn 0.0015 -0.0391 -0.9992
vn -0.0105 0.2314 -0.9728
vt 0.675610 0.024275
vt 0.583073 0.125389
vt 0.459437 0.033713
vt 0.524269 0.544772
vt 0.557241 0.489770
vt 0.684638 0.441754
vt 0.818818 0.451172
vt 0.978466 0.460950
vt 0.771951 0.595062
vt 0.706471 0.883360
vt 0.514256 0.766200
vt 0.690563 0.740106
vt 0.411951 0.017594
vt 0.411974 0.451894
vt 0.234282 0.001890
vt 0.115043 0.542586
vt 0.195036 0.585507
vt 0.110956 0.583427
vt 0.635532 0.443183
vt 0.538667 0.370026
vt 0.528985 0.302989
vt 0.579276 0.617640
vt 0.667030 0.644155
vt 0.507302 0.713653
vt 0.870927 0.663839
vt 0.980992 0.704974
vt 0.234260 0.455380
vt 0.028103 0.389494
vt 0.001890 0.146845
vt 0.934787 0.832140
vt 0.830171 0.953973
vt 0.833137 0.800690
vt 0.219032 0.876550
vt 0.097840 0.871129
vt 0.105025 0.838101
vt 0.195702 0.684217
vt 0.199815 0.723488
vt 0.128351 0.741910
vt 0.782898 0.928321
vt 0.742458 0.903147
vt 0.767973 0.731871
vt 0.379812 0.764578
vt 0.351070 0.793808
vt 0.283727 0.798193
vt 0.493587 0.259370
vt 0.362779 0.488307
vt 0.396423 0.527114
vt 0.288097 0.486769
vt 0.434651 0.859730
vt 0.270624 0.960399
vt 0.138501 0.967649
vt 0.233908 0.915262
vt 0.859206 0.112916
vt 0.826781 0.110589
vt 0.853505 0.026351
vt 0.836548 0.040935
vt 0.710827 0.074370
vt 0.707626 0.132915
vt 0.938922 0.971663
vt 0.442739 0.775974
vt 0.055082 0.915262
vt 0.488489 0.158955
vt 0.533424 0.232711
vt 0.507009 0.221660
vt 0.577835 0.229384
vt 0.694047 0.495493
vt 0.563547 0.392874
vt 0.582909 0.429617
vt 0.483346 0.690532
vt 0.153973 0.773709
vt 0.209219 0.764594
vt 0.188309 0.791928
vt 0.067799 0.882919
vt 0.049530 0.792938
vt 0.085712 0.805886
vt 0.342415 0.690155
vt 0.259419 0.636373
vt 0.417263 0.668803
vt 0.452400 0.760696
vt 0.388828 0.713463
vt 0.985041 0.733682
vt 0.852374 0.798775
vt 0.883095 0.439456
vt 0.310359 0.578749
vt 0.080383 0.661523
vt 0.105290 0.750638
vt 0.080383 0.764774
vt 0.566652 0.825525
vt 0.408465 0.646729
vt 0.414394 0.665037
vt 0.304405 0.635447
vt 0.567866 0.291302
vt 0.062307 0.684375
vt 0.113833 0.013656
vt 0.732313 0.737403
vt 0.585069 0.289991
vt 0.018515 0.912962
vt 0.013127 0.777465
vt 0.453784 0.673003
vt 0.403878 0.604875
vt 0.410505 0.554276
vt 0.163082 0.505098
vt 0.454170 0.713359
vt 0.439892 0.664434
vt 0.724219 0.571800
vt 0.032018 0.639657
vt 0.082397 0.546999
vt 0.094107 0.588257
vt 0.480969 0.633414
vt 0.700915 0.538873
vt 0.467790 0.674200
vt 0.810318 0.727054
vt 0.706358 0.306000
vt 0.815343 0.401021
vt 0.824853 0.320316
vt 0.888686 0.331141
vt 0.413500 0.892080
vt 0.355498 0.880563
vt 0.702366 0.385551
vt 0.463055 0.810583
vt 0.107450 0.959981
vt 0.029512 0.927701
vt 0.464539 0.434336
vt 0.880900 0.029005
vt 0.284358 0.723885
vt 0.572861 0.719846
vt 0.139875 0.751647
vt 0.028324 0.775410
vt 0.424727 0.029320
vt 0.464071 0.143815
vt 0.757569 0.312884
vt 0.725279 0.398539
vt 0.743119 0.403732
vt 0.783306 0.363623
vt 0.195032 0.503623
vt 0.555084 0.411791
vt 0.894650 0.096690
vt 0.891924 0.388100
vt 0.564458 0.843552
vt 0.506518 0.830391
vt 0.602776 0.440040
vt 0.261361 0.985375
vt 0.152938 0.975621
vt 0.878986 0.974497
vt 0.497706 0.812498
vt 0.498211 0.772778
vt 0.101779 0.608460
vt 0.165335 0.620680
vt 0.107564 0.647974
vt 0.505727 0.577331
vt 0.703018 0.532207
vt 0.156526 0.008427
vt 0.700870 0.543198
vt 0.689193 0.414610
vt 0.721027 0.414668
vt 0.316180 0.831656
vt 0.321408 0.854220
vt 0.295831 0.827057
vt 0.298846 0.847887
vt 0.282391 0.837562
vt 0.790133 0.665399
vt 0.504361 0.204466
vt 0.248089 0.610071
vt 0.886552 0.693096
vt 0.853126 0.691405
vt 0.805036 0.689958
vt 0.814075 0.667493
vt 0.547336 0.278914
vt 0.215862 0.490432
vt 0.025722 0.654921
vt 0.024905 0.687208
vt 0.944834 0.336709
vt 0.919057 0.366926
vt 0.445344 0.081848
vt 0.612650 0.201902
vt 0.536716 0.396259
vt 0.399799 0.631364
vt 0.542446 0.731054
vt 0.879566 0.118454
vt 0.420566 0.548463
vt 0.114149 0.684822
vt 0.417134 0.528776
vt 0.389332 0.476081
vt 0.908798 0.030465
vt 0.438393 0.444175
vt 0.521477 0.733310
vt 0.736080 0.463583
vt 0.938432 0.903809
vt 0.124217 0.748245
vt 0.602467 0.238293
vt 0.200690 0.865085
vt 0.189164 0.850012
vt 0.889880 0.402407
vt 0.111592 0.825875
vt 0.097577 0.815833
vt 0.913966 0.386158
vt 0.107696 0.728824
vt 0.787886 0.687212
vt 0.909740 0.989796
vt 0.482185 0.209021
vt 0.620935 0.194567
vt 0.617456 0.196920
vt 0.202825 0.820723
vt 0.192485 0.806784
vt 0.581521 0.853153
vt 0.859820 0.681152
vt 0.032239 0.761497
vt 0.554181 0.288388
vt 0.478389 0.126998
vt 0.033500 0.939829
vt 0.020836 0.764058
s 0
usemtl æè´¨
f 5/1/1 57/2/1 7/3/1
f 81/4/2 88/5/2 25/6/2
f 87/7/3 8/8/3 30/9/3
f 91/10/4 53/11/4 26/12/4
f 53/13/5 13/14/5 26/15/5
f 34/16/6 93/17/6 54/18/6
f 34/19/7 73/20/7 39/21/7
f 17/22/8 43/23/8 85/24/8
f 23/25/3 8/8/3 7/26/3
f 26/15/5 5/27/5 7/28/5
f 26/15/5 7/28/5 8/29/5
f 21/30/9 15/31/9 32/32/9
f 59/33/10 38/34/10 97/35/10
f 6/36/11 112/37/11 42/38/11
f 37/39/12 24/40/12 124/41/12
f 46/42/13 12/43/13 9/44/13
f 13/14/14 53/13/14 45/45/14
f 95/46/15 80/47/15 36/48/15
f 46/42/16 10/49/16 12/43/16
f 103/50/17 1/51/17 35/52/17
f 26/15/5 13/14/5 5/27/5
f 76/53/18 14/54/18 13/55/18
f 62/56/19 41/57/19 5/1/19
f 43/58/20 57/2/20 5/1/20
f 21/30/21 52/59/21 15/31/21
f 72/60/22 10/49/22 46/42/22
f 1/51/23 49/61/23 35/52/23
f 57/2/1 121/62/1 7/3/1
f 16/63/24 102/64/24 71/65/24
f 25/6/25 90/66/25 81/4/25
f 18/67/26 34/19/26 51/68/26
f 51/69/27 17/22/27 85/24/27
f 44/70/28 40/71/28 33/72/28
f 55/73/29 44/74/29 33/75/29
f 65/76/30 6/36/30 122/77/30
f 29/78/31 37/79/31 3/80/31
f 8/81/32 21/30/32 84/82/32
f 87/7/33 21/83/33 8/8/33
f 34/16/34 86/84/34 93/17/34
f 29/78/35 3/80/35 122/77/35
f 30/9/3 8/8/3 23/25/3
f 30/85/36 102/86/36 16/87/36
f 91/10/37 111/88/37 53/11/37
f 75/89/38 119/90/38 20/91/38
f 27/92/39 16/63/39 71/65/39
f 30/85/40 16/87/40 66/93/40
f 56/94/41 26/15/41 8/29/41
f 4/95/42 24/40/42 26/12/42
f 71/65/43 25/96/43 27/92/43
f 25/97/44 88/98/44 49/61/44
f 91/99/45 22/100/45 83/101/45
f 58/102/46 83/101/46 22/100/46
f 29/78/47 24/103/47 37/79/47
f 116/104/48 119/90/48 75/89/48
f 30/9/49 69/105/49 87/7/49
f 69/106/50 30/85/50 66/93/50
f 31/107/51 34/16/51 110/108/51
f 110/109/52 74/110/52 31/111/52
f 32/32/53 15/31/53 56/112/53
f 8/81/54 84/82/54 56/112/54
f 40/71/55 9/44/55 33/72/55
f 97/35/56 38/34/56 33/75/56
f 45/113/57 34/19/57 39/21/57
f 36/114/58 11/115/58 70/116/58
f 12/43/59 103/117/59 35/118/59
f 59/33/60 35/52/60 38/34/60
f 47/119/61 34/19/61 45/113/61
f 34/16/62 58/102/62 86/84/62
f 15/31/63 37/39/63 56/112/63
f 72/60/64 15/120/64 10/49/64
f 1/51/65 117/121/65 49/61/65
f 49/61/66 27/122/66 25/97/66
f 13/14/67 45/45/67 39/123/67
f 76/53/68 13/55/68 82/124/68
f 6/36/69 65/76/69 68/125/69
f 3/80/70 72/60/70 46/42/70
f 14/54/71 41/57/71 62/56/71
f 14/126/72 85/24/72 43/23/72
f 42/38/73 40/71/73 19/127/73
f 49/61/74 88/98/74 19/128/74
f 41/57/75 43/58/75 5/1/75
f 14/54/76 43/58/76 41/57/76
f 19/128/77 44/74/77 49/61/77
f 44/70/78 19/127/78 40/71/78
f 50/129/79 11/130/79 45/45/79
f 104/131/80 99/132/80 45/113/80
f 40/71/81 46/42/81 9/44/81
f 3/80/82 46/42/82 40/71/82
f 67/133/83 99/132/83 107/134/83
f 80/47/84 64/135/84 36/48/84
f 51/68/85 85/136/85 18/67/85
f 73/137/86 76/53/86 82/124/86
f 55/73/87 49/61/87 44/74/87
f 55/73/88 35/52/88 49/61/88
f 98/138/89 36/114/89 70/116/89
f 53/11/90 77/139/90 2/140/90
f 17/22/91 51/69/91 31/111/91
f 51/68/92 34/19/92 31/141/92
f 52/142/93 69/143/93 103/50/93
f 52/59/94 10/144/94 15/31/94
f 53/11/95 101/145/95 50/146/95
f 53/13/96 50/129/96 45/45/96
f 114/147/97 96/148/97 78/149/97
f 110/109/98 78/150/98 108/151/98
f 35/52/99 55/73/99 38/34/99
f 55/73/100 33/75/100 38/34/100
f 37/39/101 124/41/101 56/112/101
f 124/152/102 26/15/102 56/94/102
f 17/22/103 105/153/103 43/23/103
f 31/111/104 74/110/104 17/22/104
f 47/119/105 58/154/105 34/19/105
f 99/132/106 67/133/106 64/155/106
f 79/156/107 35/118/107 59/157/107
f 89/158/108 92/159/108 94/160/108
f 60/161/109 30/9/109 23/25/109
f 121/62/110 71/65/110 100/162/110
f 86/84/111 20/91/111 61/163/111
f 96/148/112 122/77/112 78/149/112
f 14/54/113 62/56/113 13/55/113
f 62/56/114 5/1/114 13/55/114
f 118/164/115 23/25/115 7/26/115
f 121/165/116 100/166/116 115/167/116
f 58/154/117 47/119/117 64/155/117
f 64/135/118 83/101/118 58/102/118
f 3/80/119 68/125/119 65/76/119
f 3/80/120 65/76/120 122/77/120
f 117/121/121 27/122/121 49/61/121
f 27/92/122 120/168/122 16/63/122
f 36/114/123 67/133/123 107/134/123
f 67/169/124 36/48/124 64/135/124
f 40/71/125 68/125/125 3/80/125
f 42/38/126 112/37/126 40/71/126
f 103/50/127 69/143/127 1/51/127
f 1/170/128 69/106/128 117/171/128
f 50/172/129 101/173/129 70/116/129
f 70/174/130 11/130/130 50/129/130
f 71/65/131 121/62/131 108/175/131
f 108/151/132 78/150/132 90/66/132
f 37/79/133 15/120/133 72/60/133
f 3/80/134 37/79/134 72/60/134
f 34/19/135 18/67/135 73/20/135
f 18/67/136 48/176/136 73/20/136
f 74/110/137 105/153/137 17/22/137
f 57/2/138 108/175/138 121/62/138
f 113/177/139 22/100/139 116/104/139
f 22/100/140 113/177/140 20/91/140
f 76/178/141 85/24/141 14/126/141
f 73/137/142 48/179/142 76/53/142
f 111/88/143 77/139/143 53/11/143
f 91/99/144 83/101/144 28/180/144
f 122/77/145 6/36/145 78/149/145
f 6/36/146 42/38/146 81/181/146
f 12/43/147 35/118/147 79/156/147
f 9/44/148 12/43/148 89/158/148
f 77/182/149 80/47/149 2/183/149
f 77/182/150 28/180/150 83/101/150
f 78/149/151 6/36/151 81/181/151
f 81/4/152 90/66/152 78/150/152
f 39/184/153 73/137/153 82/124/153
f 13/14/154 39/123/154 82/185/154
f 83/101/155 64/135/155 80/47/155
f 77/182/156 83/101/156 80/47/156
f 84/82/157 21/30/157 32/32/157
f 32/32/158 56/112/158 84/82/158
f 76/178/159 48/186/159 85/24/159
f 48/176/160 18/67/160 85/136/160
f 86/84/161 22/100/161 20/91/161
f 58/102/162 22/100/162 86/84/162
f 69/105/163 52/187/163 87/7/163
f 87/188/164 52/59/164 21/30/164
f 42/38/165 88/189/165 81/181/165
f 42/38/166 19/127/166 88/189/166
f 12/43/167 79/156/167 89/158/167
f 79/156/168 92/159/168 89/158/168
f 90/190/169 71/65/169 108/175/169
f 90/190/170 25/96/170 71/65/170
f 24/40/171 91/10/171 26/12/171
f 29/78/172 116/104/172 24/103/172
f 59/157/173 92/159/173 79/156/173
f 97/35/174 92/191/174 59/33/174
f 93/17/175 86/84/175 61/163/175
f 96/148/176 61/163/176 122/77/176
f 89/158/177 94/160/177 9/44/177
f 92/191/178 97/35/178 94/192/178
f 2/183/179 80/47/179 95/46/179
f 98/138/180 95/193/180 36/114/180
f 93/17/181 61/163/181 96/148/181
f 93/17/182 96/148/182 54/18/182
f 94/192/183 97/35/183 106/194/183
f 109/195/184 97/35/184 33/75/184
f 101/173/185 98/138/185 70/116/185
f 2/196/186 95/193/186 98/138/186
f 99/132/187 47/119/187 45/113/187
f 99/132/188 64/155/188 47/119/188
f 100/166/189 60/161/189 115/167/189
f 60/197/190 102/86/190 30/85/190
f 2/140/90 101/145/90 53/11/90
f 2/196/191 98/138/191 101/173/191
f 60/161/192 100/166/192 102/198/192
f 102/64/193 100/162/193 71/65/193
f 52/59/194 103/199/194 10/144/194
f 10/49/195 103/117/195 12/43/195
f 45/45/196 11/130/196 104/200/196
f 107/134/197 99/132/197 104/131/197
f 105/201/198 74/202/198 57/2/198
f 43/58/199 105/201/199 57/2/199
f 106/203/200 9/44/200 94/160/200
f 106/194/201 97/35/201 109/195/201
f 36/114/202 107/134/202 11/115/202
f 11/115/203 107/134/203 104/131/203
f 74/202/204 108/175/204 57/2/204
f 110/109/205 108/151/205 74/110/205
f 109/204/206 9/44/206 106/203/206
f 33/72/207 9/44/207 109/204/207
f 110/108/208 114/147/208 78/149/208
f 110/108/209 34/16/209 54/18/209
f 28/205/210 77/139/210 111/88/210
f 91/10/211 28/205/211 111/88/211
f 68/125/212 40/71/212 112/37/212
f 6/36/213 68/125/213 112/37/213
f 75/89/214 113/177/214 116/104/214
f 113/177/215 75/89/215 20/91/215
f 54/18/216 96/148/216 114/147/216
f 54/18/217 114/147/217 110/108/217
f 115/167/218 60/161/218 23/25/218
f 115/167/219 23/25/219 63/206/219
f 91/99/220 116/104/220 22/100/220
f 24/103/221 116/104/221 91/99/221
f 66/93/222 117/171/222 69/106/222
f 120/207/223 66/93/223 16/87/223
f 63/206/224 23/25/224 118/164/224
f 121/165/225 115/167/225 63/206/225
f 119/90/226 116/104/226 29/78/226
f 29/78/227 122/77/227 119/90/227
f 120/207/228 117/171/228 66/93/228
f 123/208/229 120/168/229 27/92/229
f 121/165/230 63/206/230 118/164/230
f 121/62/231 118/209/231 7/3/231
f 119/90/232 122/77/232 20/91/232
f 61/163/233 20/91/233 122/77/233
f 117/121/234 123/210/234 27/122/234
f 120/207/235 123/211/235 117/171/235
f 4/95/236 26/12/236 124/41/236
f 24/40/237 4/95/237 124/41/237
