# Blender 4.4.3
# www.blender.org
mtllib hp.mtl
o Cube.045
v -0.062334 -0.098616 -0.197232
v -0.062334 -0.000000 -0.197232
v -0.062334 0.098616 -0.197232
v 0.062334 -0.098616 0.197232
v 0.062334 0.098616 0.197232
v -0.062334 0.098616 0.197232
v -0.062334 -0.000000 0.197232
v -0.062334 -0.098616 0.197232
v 0.062334 0.098616 -0.197232
v 0.062334 -0.098616 -0.197232
v -0.062334 0.197232 -0.098616
v -0.062334 0.197232 0.000000
v -0.062334 0.197232 0.098616
v 0.062334 -0.197232 -0.098616
v 0.062334 -0.197232 0.098616
v 0.062334 0.197232 0.098616
v 0.062334 0.197232 -0.098616
v -0.062334 -0.197232 0.098616
v -0.062334 -0.197232 0.000000
v -0.062334 -0.197232 -0.098616
v -0.062334 0.098616 -0.098616
v -0.062334 0.098616 0.000000
v -0.062334 0.098616 0.098616
v -0.062334 -0.000000 -0.098616
v -0.062334 -0.000000 0.000000
v -0.062334 -0.000000 0.098616
v -0.062334 -0.098616 -0.098616
v -0.062334 -0.098616 0.000000
v -0.062334 -0.098616 0.098616
v 0.062334 -0.098616 -0.098616
v 0.062334 -0.098616 0.098616
v 0.062334 0.098616 -0.098616
v 0.062334 0.098616 0.098616
v 0.006241 0.098616 -0.197232
v -0.006241 0.098616 -0.197232
v 0.006241 0.000000 -0.197232
v -0.006241 -0.000000 -0.197232
v 0.006241 -0.098616 -0.197232
v -0.006241 -0.098616 -0.197232
v 0.006241 -0.098616 0.197232
v -0.006241 -0.098616 0.197232
v 0.006241 0.000000 0.197232
v -0.006241 -0.000000 0.197232
v 0.006241 0.098616 0.197232
v -0.006241 0.098616 0.197232
v 0.006241 -0.197232 -0.098616
v -0.006241 -0.197232 -0.098616
v 0.006241 -0.197232 -0.000000
v -0.006241 -0.197232 0.000000
v 0.006241 -0.197232 0.098616
v -0.006241 -0.197232 0.098616
v 0.002695 0.197232 0.087397
v -0.002695 0.197232 0.087397
v 0.006241 0.197232 -0.000000
v -0.002695 0.197232 0.000000
v 0.002695 0.197232 -0.087397
v -0.002695 0.197232 -0.087397
v 0.062334 -0.036279 0.197232
v 0.062334 0.036279 0.197232
v 0.050868 0.000000 0.197232
v 0.062334 0.036279 -0.197232
v 0.062334 -0.036279 -0.197232
v 0.050868 0.000000 -0.197232
v 0.062334 -0.197232 -0.036279
v 0.062334 -0.197232 0.036279
v 0.050868 -0.197232 -0.000000
v 0.062334 0.197232 0.036279
v 0.062334 0.197232 -0.036279
v 0.050868 0.197232 -0.000000
v 0.062334 -0.076863 0.027745
v 0.062334 -0.076863 -0.027745
v 0.062334 0.028276 -0.075419
v 0.062334 -0.028276 -0.075419
v 0.062334 -0.028276 -0.027745
v 0.062334 0.028276 -0.027745
v 0.062334 0.028276 0.027745
v 0.062334 -0.028276 0.027745
v 0.062334 -0.028276 0.075419
v 0.062334 0.028276 0.075419
v 0.062334 0.076863 -0.027745
v 0.062334 0.076863 0.027745
v 0.006241 0.197232 0.098616
v -0.006241 0.197232 0.098616
v 0.006241 0.197232 -0.098616
v -0.006241 0.197232 -0.098616
v -0.006241 0.197232 0.000000
v 0.002695 0.197232 -0.000000
v 0.002695 0.230284 -0.000000
v -0.002695 0.230284 0.000000
v -0.002695 0.222607 0.087397
v -0.002695 0.222607 0.000000
v -0.002695 0.222607 -0.087397
v 0.002695 0.222607 0.087397
v 0.002695 0.222607 -0.000000
v 0.002695 0.222607 -0.087397
v -0.062334 0.197232 0.088631
v -0.062334 -0.197232 0.088631
v -0.062334 0.098616 0.088631
v -0.062334 -0.000000 0.088631
v -0.062334 -0.098616 0.088631
v -0.006241 0.197232 0.088631
v 0.006241 0.197232 0.088631
v -0.006241 -0.197232 0.088631
v 0.006241 -0.197232 0.088631
v -0.002695 0.197232 0.078547
v 0.002695 0.197232 0.078547
v -0.002695 0.230284 0.078547
v 0.002695 0.230284 0.078547
v 0.002695 0.222607 0.078547
v -0.002695 0.222607 0.078547
v -0.062334 0.197232 -0.090984
v -0.062334 -0.197232 -0.090984
v -0.062334 0.098616 -0.090984
v -0.062334 -0.000000 -0.090984
v -0.062334 -0.098616 -0.090984
v -0.006241 0.197232 -0.090984
v 0.006241 0.197232 -0.090984
v -0.006241 -0.197232 -0.090984
v 0.006241 -0.197232 -0.090984
v -0.002695 0.197232 -0.080633
v 0.002695 0.197232 -0.080633
v -0.002695 0.230284 -0.080633
v 0.002695 0.230284 -0.080633
v 0.002695 0.222607 -0.080633
v -0.002695 0.222607 -0.080633
v 0.002695 0.230284 0.078547
v 0.002695 0.222607 0.087397
v -0.002695 0.222607 0.087397
v -0.002695 0.230284 0.078547
v 0.002695 0.222607 -0.087397
v 0.002695 0.230284 -0.080633
v -0.002695 0.230284 -0.080633
v -0.002695 0.222607 -0.087397
v 0.062334 -0.197232 -0.136872
v 0.062334 -0.136872 -0.197232
v -0.062334 -0.136872 -0.197232
v -0.062334 -0.197232 -0.136872
v 0.062334 -0.136872 0.197232
v 0.062334 -0.197232 0.136872
v -0.062334 -0.197232 0.136872
v -0.062334 -0.136872 0.197232
v 0.062334 0.136872 -0.197232
v 0.062334 0.197232 -0.136872
v -0.062334 0.197232 -0.136872
v -0.062334 0.136872 -0.197232
v 0.062334 0.197232 0.136872
v 0.062334 0.136872 0.197232
v -0.062334 0.136872 0.197232
v -0.062334 0.197232 0.136872
v 0.006241 -0.197232 -0.136872
v 0.006241 -0.136872 -0.197232
v -0.006241 -0.136872 -0.197232
v -0.006241 -0.197232 -0.136872
v -0.006241 0.136872 0.197232
v -0.006241 0.197232 0.136872
v 0.006241 0.197232 0.136872
v 0.006241 0.136872 0.197232
v 0.006241 -0.136872 0.197232
v 0.006241 -0.197232 0.136872
v -0.006241 -0.197232 0.136872
v -0.006241 -0.136872 0.197232
v 0.006241 0.136872 -0.197232
v 0.006241 0.197232 -0.136872
v -0.006241 0.197232 -0.136872
v -0.006241 0.136872 -0.197232
v 0.062334 -0.018343 0.197232
v 0.062334 -0.018343 -0.197232
v 0.062334 -0.014296 -0.027745
v 0.062334 -0.014296 0.027745
v 0.062334 -0.014296 0.075419
v 0.062334 -0.014296 -0.075419
v 0.062334 -0.197232 0.018630
v 0.062334 0.197232 0.018630
v 0.062334 -0.028276 0.014247
v 0.062334 0.028276 0.014247
v 0.062334 0.076863 0.014247
v 0.062334 -0.076863 0.014247
v 0.062334 -0.014296 0.014247
vn -0.0000 1.0000 -0.0000
vn 1.0000 -0.0000 -0.0000
vn -0.0000 -0.0000 -1.0000
vn -0.0000 -1.0000 -0.0000
vn -0.0000 -0.0000 1.0000
vn -1.0000 -0.0000 -0.0000
vn -0.0000 -0.0000 -0.0000
vn -0.0000 0.7554 0.6553
vn -0.0000 0.6611 -0.7503
vn -0.0000 -0.7071 -0.7071
vn -0.0000 0.7071 0.7071
vn -0.0000 -0.7071 0.7071
vn -0.0000 0.7071 -0.7071
vt 0.375000 0.038254
vt 0.458333 0.038254
vt 0.458333 0.062500
vt 0.375000 0.062500
vt 0.812500 0.687500
vt 0.875000 0.687500
vt 0.875000 0.711746
vt 0.836746 0.750000
vt 0.812500 0.750000
vt 0.375000 0.288254
vt 0.458333 0.288254
vt 0.458333 0.312500
vt 0.375000 0.312500
vt 0.812500 0.500000
vt 0.836746 0.500000
vt 0.875000 0.538254
vt 0.875000 0.562500
vt 0.812500 0.562500
vt 0.375000 0.687500
vt 0.458333 0.687500
vt 0.458333 0.711746
vt 0.375000 0.711746
vt 0.375000 0.437500
vt 0.458333 0.437500
vt 0.458333 0.461746
vt 0.375000 0.461746
vt 0.541667 0.187500
vt 0.625000 0.187500
vt 0.625000 0.211746
vt 0.541667 0.211746
vt 0.541667 0.562500
vt 0.625000 0.562500
vt 0.625000 0.602008
vt 0.607966 0.625000
vt 0.541667 0.625000
vt 0.541667 0.567337
vt 0.687500 0.500000
vt 0.727008 0.500000
vt 0.727008 0.562500
vt 0.687500 0.562500
vt 0.375000 0.937500
vt 0.458333 0.937500
vt 0.458333 0.961746
vt 0.375000 0.961746
vt 0.187500 0.687500
vt 0.250000 0.687500
vt 0.250000 0.750000
vt 0.187500 0.750000
vt 0.312500 0.687500
vt 0.312500 0.750000
vt 0.541667 0.687500
vt 0.625000 0.687500
vt 0.625000 0.711746
vt 0.541667 0.711746
vt 0.772992 0.500000
vt 0.772992 0.562500
vt 0.772992 0.687500
vt 0.772992 0.750000
vt 0.541667 0.788254
vt 0.625000 0.788254
vt 0.625000 0.812500
vt 0.541667 0.812500
vt 0.541667 0.875000
vt 0.607966 0.875000
vt 0.625000 0.897992
vt 0.625000 0.937500
vt 0.541667 0.937500
vt 0.625000 0.852008
vt 0.607966 0.875000
vt 0.541667 0.375000
vt 0.607966 0.375000
vt 0.625000 0.397992
vt 0.625000 0.437500
vt 0.541667 0.437500
vt 0.772992 0.647992
vt 0.812500 0.647992
vt 0.541667 0.312500
vt 0.625000 0.312500
vt 0.625000 0.352007
vt 0.607966 0.375000
vt 0.687500 0.647992
vt 0.727008 0.647993
vt 0.727008 0.687500
vt 0.687500 0.687500
vt 0.812500 0.602008
vt 0.772992 0.602007
vt 0.541667 0.538254
vt 0.625000 0.538254
vt 0.607966 0.625000
vt 0.625000 0.647992
vt 0.541667 0.681172
vt 0.875000 0.647992
vt 0.250000 0.500000
vt 0.312500 0.500000
vt 0.312500 0.562500
vt 0.250000 0.562500
vt 0.250000 0.567337
vt 0.312500 0.567337
vt 0.312500 0.625000
vt 0.250000 0.625000
vt 0.250000 0.681172
vt 0.312500 0.681172
vt 0.187500 0.500000
vt 0.187500 0.562500
vt 0.187500 0.567337
vt 0.187500 0.625000
vt 0.187500 0.681172
vt 0.541667 0.038254
vt 0.625000 0.038254
vt 0.625000 0.062500
vt 0.541667 0.062500
vt 0.125000 0.567337
vt 0.125000 0.625000
vt 0.125000 0.681172
vt 0.125000 0.687500
vt 0.625000 0.461746
vt 0.541667 0.461746
vt 0.687500 0.602008
vt 0.687500 0.750000
vt 0.663254 0.750000
vt 0.375000 0.567337
vt 0.375000 0.625000
vt 0.375000 0.681172
vt 0.625000 0.961746
vt 0.541667 0.961746
vt 0.727008 0.602008
vt 0.875000 0.602008
vt 0.541667 0.288254
vt 0.625000 0.288254
vt 0.625000 0.102007
vt 0.607966 0.125000
vt 0.541667 0.125000
vt 0.541667 0.068828
vt 0.607966 0.125000
vt 0.625000 0.147993
vt 0.541667 0.182663
vt 0.375000 0.182663
vt 0.458333 0.182663
vt 0.458333 0.187500
vt 0.375000 0.187500
vt 0.482006 0.176103
vt 0.482006 0.125000
vt 0.482006 0.125000
vt 0.375000 0.068828
vt 0.458333 0.068828
vt 0.458333 0.125000
vt 0.375000 0.125000
vt 0.517994 0.180389
vt 0.482006 0.180389
vt 0.163254 0.750000
vt 0.125000 0.711746
vt 0.458333 0.681172
vt 0.458333 0.567337
vt 0.458333 0.625000
vt 0.336746 0.500000
vt 0.375000 0.538254
vt 0.375000 0.562500
vt 0.375000 0.875000
vt 0.458333 0.875000
vt 0.375000 0.812500
vt 0.458333 0.812500
vt 0.336746 0.750000
vt 0.458333 0.211746
vt 0.375000 0.375000
vt 0.458333 0.375000
vt 0.375000 0.211746
vt 0.458333 0.538254
vt 0.458333 0.562500
vt 0.375000 0.788254
vt 0.458333 0.788254
vt 0.125000 0.538254
vt 0.163254 0.500000
vt 0.125000 0.562500
vt 0.625000 0.875000
vt 0.625000 0.880684
vt 0.625000 0.369316
vt 0.625000 0.375000
vt 0.625000 0.636807
vt 0.625000 0.647993
vt 0.625000 0.107600
vt 0.625000 0.125000
vt 0.738375 0.636807
vt 0.772992 0.636807
vt 0.738375 0.647992
vt 0.738375 0.687500
vt 0.738375 0.750000
vt 0.727008 0.750000
vt 0.738375 0.500000
vt 0.738375 0.562500
vt 0.738375 0.602008
vt 0.812500 0.636807
vt 0.727008 0.636807
vt 0.687500 0.636807
vt 0.875000 0.636807
vt 0.517994 0.069611
vt 0.482006 0.069611
vt 0.482006 0.176103
vt 0.517994 0.176103
vt 0.517994 0.125000
vt 0.482006 0.075219
vt 0.517994 0.075219
vt 0.517994 0.176103
vt 0.482006 0.075219
vt 0.517994 0.075219
vt 0.541667 0.000000
vt 0.625000 0.000000
vt 0.375000 0.000000
vt 0.458333 0.000000
vt 0.663254 0.500000
s 1
usemtl Material.002
f 149/1/1 155/2/1 83/3/1 13/4/1
f 33/5/2 16/6/2 146/7/2 147/8/2 5/9/2
f 145/10/3 165/11/3 35/12/3 3/13/3
f 9/14/2 142/15/2 143/16/2 17/17/2 32/18/2
f 18/19/4 51/20/4 160/21/4 140/22/4
f 1/23/3 39/24/3 152/25/3 136/26/3
f 84/27/1 17/28/1 143/29/1 163/30/1
f 46/31/4 14/32/4 64/33/4 66/34/4 48/35/4 119/36/4
f 10/37/2 62/38/2 73/39/2 30/40/2
f 6/41/5 45/42/5 154/43/5 148/44/5
f 23/45/6 26/46/6 7/47/6 6/48/6
f 26/46/6 29/49/6 8/50/6 7/47/6
f 50/51/4 15/52/4 139/53/4 159/54/4
f 61/55/2 9/14/2 32/18/2 72/56/2
f 79/57/2 33/5/2 5/9/2 59/58/2
f 158/59/5 138/60/5 4/61/5 40/62/5
f 42/63/5 60/64/5 59/65/5 5/66/5 44/67/5
f 40/62/5 4/61/5 58/68/5 60/69/5 42/63/5
f 36/70/3 63/71/3 62/72/3 10/73/3 38/74/3
f 76/75/2 81/76/2 33/5/2 79/57/2
f 34/77/3 9/78/3 61/79/3 63/80/3 36/70/3
f 70/81/2 77/82/2 78/83/2 31/84/2
f 72/56/2 32/18/2 80/85/2 75/86/2
f 150/87/4 134/88/4 14/32/4 46/31/4
f 48/35/4 66/89/4 65/90/4 15/52/4 50/51/4 104/91/4
f 81/76/2 67/92/2 16/6/2 33/5/2
f 2/93/6 1/94/6 27/95/6 24/96/6
f 114/97/6 115/98/6 28/99/6 25/100/6
f 99/101/6 100/102/6 29/49/6 26/46/6
f 3/103/6 2/93/6 24/96/6 21/104/6
f 113/105/6 114/97/6 25/100/6 22/106/6
f 98/107/6 99/101/6 26/46/6 23/45/6
f 156/108/1 146/109/1 16/110/1 82/111/1
f 111/112/6 113/105/6 22/106/6 12/113/6
f 96/114/6 98/107/6 23/45/6 13/115/6
f 38/74/3 10/73/3 135/116/3 151/117/3
f 14/32/2 30/40/2 71/118/2 64/33/2
f 65/90/2 70/81/2 31/84/2 15/52/2
f 15/52/2 31/84/2 4/119/2 138/120/2 139/53/2
f 115/98/6 112/121/6 19/122/6 28/99/6
f 100/102/6 97/123/6 18/19/6 29/49/6
f 44/67/5 5/66/5 147/124/5 157/125/5
f 30/40/2 73/39/2 74/126/2 71/118/2
f 32/18/2 17/17/2 68/127/2 80/85/2
f 162/128/3 142/129/3 9/78/3 34/77/3
f 82/111/1 16/110/1 67/130/1 69/131/1 54/132/1 102/133/1
f 54/132/1 69/134/1 68/135/1 17/28/1 84/27/1 117/136/1
f 111/137/1 116/138/1 85/139/1 11/140/1
f 96/144/1 101/145/1 86/146/1 12/147/1
f 13/115/6 23/45/6 6/48/6 148/150/6 149/151/6
f 97/123/4 103/152/4 51/20/4 18/19/4
f 112/121/4 118/153/4 49/154/4 19/122/4
f 1/94/6 136/155/6 137/156/6 20/157/6 27/95/6
f 7/158/5 43/159/5 45/42/5 6/41/5
f 8/160/5 41/161/5 43/159/5 7/158/5
f 29/49/6 18/19/6 140/22/6 141/162/6 8/50/6
f 2/164/3 37/165/3 39/24/3 1/23/3
f 3/13/3 35/12/3 37/165/3 2/164/3
f 11/140/1 85/139/1 164/163/1 144/166/1
f 137/156/4 153/167/4 47/168/4 20/157/4
f 141/169/5 161/170/5 41/161/5 8/160/5
f 144/171/6 145/172/6 3/103/6 21/104/6 11/173/6
f 58/174/5 166/175/5 59/65/5 60/64/5
f 61/79/3 167/176/3 62/177/3 63/80/3
f 64/33/4 172/178/4 65/179/4 66/89/4
f 67/130/1 173/180/1 68/181/1 69/131/1
f 170/185/2 166/186/2 58/187/2 78/83/2
f 167/188/2 171/189/2 73/39/2 62/38/2
f 177/193/2 172/178/2 64/33/2 71/118/2
f 173/194/2 176/191/2 80/85/2 68/127/2
f 31/84/2 78/83/2 58/187/2 4/119/2
f 19/122/4 49/154/4 103/152/4 97/123/4
f 13/4/1 83/3/1 101/145/1 96/144/1
f 28/99/6 19/122/6 97/123/6 100/102/6
f 12/113/6 22/106/6 98/107/6 96/114/6
f 22/106/6 25/100/6 99/101/6 98/107/6
f 25/100/6 28/99/6 100/102/6 99/101/6
f 20/157/4 47/168/4 118/153/4 112/121/4
f 12/147/1 86/146/1 116/138/1 111/137/1
f 27/95/6 20/157/6 112/121/6 115/98/6
f 11/173/6 21/104/6 113/105/6 111/112/6
f 21/104/6 24/96/6 114/97/6 113/105/6
f 24/96/6 27/95/6 115/98/6 114/97/6
f 153/167/10 137/156/10 136/26/10 152/25/10
f 157/205/11 147/206/11 146/109/11 156/108/11
f 161/170/12 141/169/12 140/22/12 160/21/12
f 165/11/13 145/10/13 144/166/13 164/163/13
f 134/88/10 150/87/10 151/117/10 135/116/10
f 148/207/11 154/208/11 155/2/11 149/1/11
f 138/60/12 158/59/12 159/54/12 139/53/12
f 142/129/13 162/128/13 163/30/13 143/29/13
f 134/88/2 135/209/2 10/37/2 30/40/2 14/32/2
f 61/55/2 72/56/2 171/189/2 167/188/2
f 79/57/2 59/58/2 166/186/2 170/185/2
f 67/92/2 81/76/2 176/191/2 173/194/2
f 70/81/2 65/90/2 172/178/2 177/193/2
usemtl Material.003
f 95/148/7 92/149/7 133/149/7 130/148/7
f 51/20/4 50/51/4 159/54/4 160/21/4
f 103/152/4 104/91/4 50/51/4 51/20/4
f 118/153/4 119/36/4 48/35/4 49/154/4
f 45/42/5 44/67/5 157/125/5 154/43/5
f 43/159/5 42/63/5 44/67/5 45/42/5
f 41/161/5 40/62/5 42/63/5 43/159/5
f 85/139/1 84/27/1 163/30/1 164/163/1
f 37/165/3 36/70/3 38/74/3 39/24/3
f 35/12/3 34/77/3 36/70/3 37/165/3
f 153/167/4 150/87/4 46/31/4 47/168/4
f 161/170/5 158/59/5 40/62/5 41/161/5
f 165/11/3 162/128/3 34/77/3 35/12/3
f 39/24/3 38/74/3 151/117/3 152/25/3
f 155/2/1 156/108/1 82/111/1 83/3/1
f 178/182/2 175/183/2 76/75/2 169/184/2
f 171/189/2 168/190/2 74/126/2 73/39/2
f 169/184/2 170/185/2 78/83/2 77/82/2
f 176/191/2 175/183/2 75/86/2 80/85/2
f 174/192/2 177/193/2 71/118/2 74/126/2
f 52/195/1 53/196/1 83/3/1 82/111/1
f 57/149/1 56/148/1 84/27/1 85/139/1
f 120/197/1 57/149/1 85/139/1 116/138/1
f 121/198/1 87/199/1 54/132/1 117/136/1
f 105/200/1 55/143/1 86/146/1 101/145/1
f 106/201/1 52/195/1 82/111/1 102/133/1
f 122/141/7 123/202/7 131/202/7 132/141/7
f 90/196/7 93/195/7 127/195/7 128/196/7
f 87/199/1 106/201/1 102/133/1 54/132/1
f 53/196/1 105/200/1 101/145/1 83/3/1
f 49/154/4 48/35/4 104/91/4 103/152/4
f 56/148/1 121/198/1 117/136/1 84/27/1
f 55/143/1 120/197/1 116/138/1 86/146/1
f 47/168/4 46/31/4 119/36/4 118/153/4
f 55/143/1 105/200/1 106/201/1 87/199/1 121/198/1 120/197/1
f 129/203/7 126/204/7 108/204/7 107/203/7
f 150/87/10 153/167/10 152/25/10 151/117/10
f 154/208/11 157/205/11 156/108/11 155/2/11
f 158/59/12 161/170/12 160/21/12 159/54/12
f 162/128/13 165/11/13 164/163/13 163/30/13
f 76/75/2 79/57/2 170/185/2 169/184/2
f 72/56/2 75/86/2 168/190/2 171/189/2
f 174/192/2 178/182/2 169/184/2 77/82/2
f 74/126/2 168/190/2 178/182/2 174/192/2
f 77/82/2 70/81/2 177/193/2 174/192/2
f 81/76/2 76/75/2 175/183/2 176/191/2
f 168/190/2 75/86/2 175/183/2 178/182/2
usemtl Material.004
f 125/141/6 91/142/6 89/143/6 122/141/6
f 124/202/2 95/148/7 130/148/7 131/202/7 123/202/7
f 107/203/1 108/204/1 88/199/1 89/143/1
f 93/195/7 109/204/2 108/204/7 126/204/7 127/195/7
f 109/204/2 94/199/2 88/199/2 108/204/7
f 92/149/6 125/141/6 122/141/6 132/141/6 133/149/6
f 56/148/3 57/149/3 92/149/3 95/148/3
f 121/198/2 56/148/2 95/148/7 124/202/2
f 53/196/5 52/195/5 93/195/5 90/196/5
f 105/200/6 53/196/6 90/196/6 110/203/6
f 52/195/2 106/201/2 109/204/2 93/195/7
f 110/203/6 90/196/6 128/196/6 129/203/6 107/203/6
f 91/142/6 110/203/6 107/203/6 89/143/6
f 57/149/6 120/197/6 125/141/6 92/149/6
f 94/199/2 124/202/2 123/202/7 88/199/2
f 89/143/1 88/199/1 123/202/1 122/141/1
f 125/141/5 120/197/5 121/198/5 124/202/5
f 110/203/3 109/204/3 106/201/3 105/200/3
f 126/204/8 129/203/8 128/196/8 127/195/8
f 130/148/9 133/149/9 132/141/9 131/202/9
f 124/202/4 94/199/4 109/204/4 110/203/4 91/142/4 125/141/4
